<svg width="180" height="256" viewBox="0 0 180 256" fill="none" xmlns="http://www.w3.org/2000/svg">
<g clip-path="url(#clip0_2521_77)">
<rect width="180" height="256" rx="30" fill="#FFECF5"/>
<path d="M82.4228 170.504C65.9937 160.666 53.8326 180.53 41.7242 187.558C29.6158 194.585 1.54057 207.121 -13.9912 190.85C-52.4654 150.544 55.1969 92.0409 106.336 114.17C157.232 136.193 160.071 191.297 133.658 253.523C107.244 315.749 82.7769 242.355 82.9705 222.448C83.1642 202.541 97.8576 179.747 82.4228 170.504Z" fill="#EBBCA1"/>
<path d="M118.327 211.3C114.822 205.027 107.995 206.134 102.46 211.3C96.925 216.466 102.46 227.167 102.46 227.167C106.842 231.548 115.006 234.547 118.327 227.167C121.648 219.787 121.832 217.573 118.327 211.3Z" fill="white"/>
<path d="M137.53 188.878C134.368 183.22 128.211 184.219 123.219 188.878C118.226 193.538 123.219 203.189 123.219 203.189C127.171 207.141 134.535 209.846 137.53 203.189C140.525 196.533 140.692 194.536 137.53 188.878Z" fill="#7EC6FA"/>
<path d="M115.953 172.743C112.902 167.282 106.96 168.246 102.141 172.743C97.3232 177.24 102.141 186.555 102.141 186.555C105.955 190.369 113.063 192.979 115.953 186.555C118.844 180.131 119.005 178.203 115.953 172.743Z" fill="#B0463F"/>
<path d="M53.1968 64.1326C32.6052 68.4697 15 89.7187 15 89.7187C15 89.7187 30.7681 140.688 53.1968 142.899C71.1918 144.674 75.7464 122.436 93.2799 117.673C108.649 113.499 122.045 125.911 133.835 117.673C145.624 109.436 155.527 99.1401 156.941 81.6363C158.356 64.1326 133.835 10.5916 122.045 37.3621C110.256 64.1326 107.33 59.1904 93.2799 64.1326C82.0618 68.0786 64.7695 61.6951 53.1968 64.1326Z" fill="white"/>
<path d="M56.6992 120.336L60.8994 106.178C62.8206 99.7021 70.5745 97.0801 76.0317 101.061L76.2946 101.253C81.6237 105.14 89.1954 102.58 91.0715 96.256L92.2963 92.1275C93.7212 87.3247 99.6638 85.6445 103.393 88.9902V88.9902C107.785 92.9314 114.77 89.814 114.771 83.9126L114.771 74" stroke="#B8A0FD"/>
<path d="M124.906 79.6768C125.309 71.3746 130.74 62.1818 130.74 62.1818L143.53 74.972C143.53 74.972 124.504 87.979 124.906 79.6768Z" fill="#B8A0FD"/>
<rect x="159.705" y="33.2159" width="18.088" height="40.964" transform="rotate(45 159.705 33.2159)" fill="#9C7AFF"/>
<path d="M172.496 46.0057L159.706 33.2155C159.706 33.2155 167.379 31.0317 171.086 34.8159C174.744 38.5496 172.496 46.0057 172.496 46.0057Z" fill="#B8A0FD"/>
<path d="M39 81.27C39 81.27 44.8703 83.3259 47.525 86.075C51.0934 89.7703 52.33 98.32 52.33 98.32C52.33 98.32 52.6587 87.1814 56.05 81.27C57.3212 79.0542 59.925 76 59.925 76" stroke="#B8A0FD"/>
<path d="M38.6577 161.563C51.859 174.764 32.7555 167.465 32.7555 167.465L10.4242 145.133C10.4242 145.133 2.84402 133.713 16.3264 139.231C29.8087 144.749 25.4563 148.361 38.6577 161.563Z" fill="#361A4F"/>
<path d="M38.3752 161.7L33.0542 167.021C33.0542 167.021 34.8944 175.798 39.2319 177.901C43.1073 179.78 50.2546 177.539 50.2546 177.539C50.2546 177.539 51.5223 168.627 48.1224 165.013C45.408 162.127 38.3752 161.7 38.3752 161.7Z" fill="#FAE7B5"/>
</g>
<defs>
<clipPath id="clip0_2521_77">
<rect width="180" height="256" rx="30" fill="white"/>
</clipPath>
</defs>
</svg>
