<svg width="430" height="336" viewBox="0 0 430 336" fill="none" xmlns="http://www.w3.org/2000/svg">
<g clip-path="url(#clip0_2522_151)">
<rect width="430" height="336" fill="#FFECF5"/>
<path d="M0.5 219.5L65.363 150.433C81.8867 132.838 90.1486 124.041 100.316 119.456C107.232 116.338 114.711 114.657 122.297 114.516C133.448 114.31 144.679 118.726 167.143 127.558L259.3 163.795C270.734 168.291 276.451 170.539 281.804 171.518C300.457 174.929 319.569 168.67 332.589 154.885C336.326 150.929 339.605 145.734 346.164 135.346L353.699 123.411C354.194 122.628 354.441 122.236 354.657 121.905C370.746 97.2007 403.233 89.2014 428.953 103.611C429.298 103.804 429.699 104.036 430.5 104.5V104.5" stroke="white" stroke-opacity="0.6" stroke-width="3"/>
<path d="M-2.5 271.5L101.13 166.485C109.337 158.169 113.44 154.011 117.961 150.935C128.439 143.808 141.024 140.445 153.661 141.396C159.114 141.806 164.744 143.363 176.005 146.477V146.477C189.065 150.088 195.596 151.894 201.797 152.198C216.195 152.903 230.309 148.029 241.204 138.591C245.897 134.525 249.922 129.075 257.971 118.174L263.144 111.169C275.649 94.2356 281.901 85.7687 290.003 80.3442C297.382 75.4041 305.83 72.2896 314.65 71.2576C324.334 70.1245 334.586 72.5066 355.091 77.2709L440 97" stroke="white" stroke-opacity="0.6" stroke-width="3"/>
<path d="M288.197 220.133C267.605 224.47 250 245.719 250 245.719C250 245.719 265.768 296.688 288.197 298.899C306.192 300.674 310.746 278.436 328.28 273.673C343.649 269.499 357.045 281.911 368.835 273.673C380.624 265.436 390.527 255.14 391.941 237.636C393.356 220.133 368.835 166.592 357.045 193.362C345.256 220.133 342.33 215.19 328.28 220.133C317.062 224.079 299.77 217.695 288.197 220.133Z" fill="white"/>
<path d="M275 235.27C275 235.27 280.87 237.326 283.525 240.075C287.093 243.77 288.33 252.32 288.33 252.32C288.33 252.32 288.659 241.181 292.05 235.27C293.321 233.054 295.925 230 295.925 230" stroke="#B8A0FD"/>
<path d="M349.58 237.352C349.983 229.049 355.414 219.857 355.414 219.857L368.204 232.647C368.204 232.647 349.178 245.654 349.58 237.352Z" fill="#B8A0FD"/>
<rect x="384.379" y="190.891" width="18.088" height="40.964" transform="rotate(45 384.379 190.891)" fill="#9C7AFF"/>
<path d="M397.17 203.68L384.38 190.89C384.38 190.89 392.053 188.707 395.761 192.491C399.418 196.224 397.17 203.68 397.17 203.68Z" fill="#B8A0FD"/>
<path d="M290.099 276.336L294.299 262.178C296.22 255.702 303.974 253.08 309.431 257.061L309.694 257.253C315.023 261.14 322.595 258.58 324.471 252.256L325.696 248.128C327.121 243.325 333.063 241.645 336.792 244.99V244.99C341.185 248.931 348.17 245.814 348.17 239.913L348.17 230" stroke="#B8A0FD"/>
<path d="M154.12 266.572C132.309 262.366 126.933 288.843 116.523 301.307C106.112 313.772 80.4825 338.575 57.0967 327.001C-0.833016 298.33 93.3129 191.845 157.836 195.677C222.053 199.491 247.01 258.43 242.906 336.738C238.802 415.047 183.012 344.751 175.325 322.975C167.639 301.199 174.612 270.523 154.12 266.572Z" fill="#EBBCA1"/>
<path d="M219.262 320.379C212.952 314.932 205.95 318.847 201.966 326.674C197.982 334.502 208.261 343.97 208.261 343.97C214.776 347.008 224.865 347.037 225.557 337.675C226.249 328.313 225.572 325.826 219.262 320.379Z" fill="white"/>
<path d="M231.298 288.32C225.607 283.407 219.292 286.938 215.698 293.998C212.105 301.058 221.376 309.598 221.376 309.598C227.252 312.338 236.352 312.364 236.976 303.92C237.6 295.476 236.989 293.233 231.298 288.32Z" fill="#7EC6FA"/>
<path d="M201.377 279.292C195.885 274.551 189.789 277.959 186.322 284.772C182.854 291.586 191.801 299.828 191.801 299.828C197.472 302.472 206.255 302.498 206.857 294.348C207.46 286.198 206.87 284.034 201.377 279.292Z" fill="#B0463F"/>
<path d="M95.1371 273.298C114.765 282.451 91.0451 282.073 91.0451 282.073L57.8433 266.591C57.8433 266.591 45.0498 257.15 61.9353 257.816C78.8207 258.481 75.5095 264.145 95.1371 273.298Z" fill="#361A4F"/>
<path d="M94.8837 273.56L91.1946 281.471C91.1946 281.471 96.6825 290.308 102.245 290.88C107.215 291.391 114.117 286.112 114.117 286.112C114.117 286.112 111.963 275.895 106.823 273.304C102.719 271.235 94.8837 273.56 94.8837 273.56Z" fill="#FAE7B5"/>
<circle cx="20" cy="291" r="6" fill="#B8A0FD" fill-opacity="0.2"/>
<circle cx="245" cy="191" r="6.42" fill="#B8A0FD" fill-opacity="0.3"/>
<path d="M291.682 189.184L293.407 183.943L295.269 189.184H302.51L296.234 191.874L299.062 197.874L293.407 193.736L287.958 197.874L290.579 191.874L284.51 189.184H291.682Z" fill="#EBBCA1"/>
<circle cx="38.0001" cy="123" r="4.44" fill="white"/>
<circle cx="324" cy="114" r="4.44" fill="white"/>
<circle cx="161" cy="91" r="4.44" fill="white"/>
<path d="M93.7338 134.232L95.4096 129.138L97.2194 134.232H104.258L98.1579 136.847L100.906 142.678L95.4096 138.657L90.1141 142.678L92.6613 136.847L86.7625 134.232H93.7338Z" fill="white"/>
</g>
<defs>
<clipPath id="clip0_2522_151">
<rect width="430" height="336" fill="white"/>
</clipPath>
</defs>
</svg>
