<svg width="395" height="757" viewBox="0 0 395 757" fill="none" xmlns="http://www.w3.org/2000/svg">
<path d="M252.27 117.818C228.991 84.7273 163.651 84.7273 140.372 117.818C125.719 138.648 140.372 187.547 140.372 187.547C140.372 187.547 9.61628 145.238 7.49315 194.252C0.000101089 367.233 0 540.661 0 540.661C0 540.661 77.8727 512.163 101.407 540.661C118.798 561.72 118.798 586.65 101.407 607.709C77.8727 636.207 -0.000112771 572.274 0 607.709C0.000100997 639.444 0 757 0 757H392.642V424.894C392.642 424.894 328.427 468.701 297.728 424.894C287.676 410.548 289.124 396.617 297.728 381.536C314.582 351.998 383.546 413.688 392.642 381.536C400.192 354.846 386.662 226.65 392.642 180.842C399.002 132.123 252.27 180.842 252.27 180.842C252.27 180.842 266.923 138.648 252.27 117.818Z" fill="#B8A0FD"/>
<path d="M252.27 94.1918C228.991 60.6027 163.651 60.6027 140.372 94.1918C125.719 115.335 140.372 164.971 140.372 164.971C140.372 164.971 9.61628 122.025 7.49315 171.777C0.000101089 347.363 0 523.403 0 523.403C0 523.403 77.8727 494.475 101.407 523.403C118.798 544.779 118.798 570.085 101.407 591.46C77.8727 620.388 -0.000112771 555.492 0 591.46C0.000100997 623.674 0 743 0 743H392.642V405.892C392.642 405.892 328.427 450.359 297.728 405.892C287.676 391.331 289.124 377.189 297.728 361.882C314.582 331.898 383.546 394.518 392.642 361.882C400.192 334.79 386.662 204.663 392.642 158.165C399.002 108.712 252.27 158.165 252.27 158.165C252.27 158.165 266.923 115.335 252.27 94.1918Z" fill="#B8A0FD" fill-opacity="0.15"/>
<path d="M318.432 112.542C321.768 113.103 321.768 117.897 318.432 118.458L285.498 124.004C283.668 124.312 282 122.902 282 121.046V109.954C282 108.098 283.668 106.688 285.498 106.996L318.432 112.542Z" fill="#F0A0FD" fill-opacity="0.15"/>
<path d="M304.91 57.3153C308.08 56.1339 310.477 60.2849 307.869 62.4393L282.12 83.709C280.689 84.891 278.539 84.5033 277.611 82.8961L272.065 73.2904C271.138 71.6832 271.877 69.6275 273.616 68.9793L304.91 57.3153Z" fill="#F0A0FD" fill-opacity="0.15"/>
<path d="M268.765 18.3056C271.34 16.1113 275.012 19.1923 273.298 22.1088L256.377 50.9023C255.437 52.5023 253.284 52.8734 251.862 51.6805L243.365 44.5509C241.944 43.3579 241.935 41.1734 243.348 39.9695L268.765 18.3056Z" fill="#F0A0FD" fill-opacity="0.15"/>
<path d="M46.0462 296.153L166.144 281.407C166.144 281.407 135.383 227.672 102.514 229.824C67.6745 232.106 46.0462 296.153 46.0462 296.153Z" fill="white"/>
<path d="M224.856 281.407L344.954 296.153C344.954 296.153 328.106 236.572 295.692 230.709C261.336 224.495 224.856 281.407 224.856 281.407Z" fill="white"/>
<path d="M73.9944 292.609L134.54 285.175C134.54 285.175 119.12 258.799 102.552 259.908C84.9915 261.083 73.9944 292.609 73.9944 292.609Z" fill="#361A4F"/>
<path d="M256 284.784L316.545 292.218C316.545 292.218 307.964 262.896 291.62 259.963C274.297 256.855 256 284.784 256 284.784Z" fill="#361A4F"/>
<path d="M135 345H256C256 345 232.017 422.401 199.13 424.936C164.272 427.622 135 345 135 345Z" fill="#361A4F"/>
<rect x="167.883" y="343" width="20" height="27" rx="2" transform="rotate(4 167.883 343)" fill="white"/>
<rect x="197.465" y="344.341" width="20" height="27" rx="2" fill="white"/>
<circle cx="39" cy="293" r="25" fill="#FAC7C7"/>
<circle cx="352" cy="296" r="25" fill="#FAC7C7"/>
</svg>
