<svg width="383" height="188" viewBox="0 0 383 188" fill="none" xmlns="http://www.w3.org/2000/svg">
<rect width="383" height="187" rx="30" fill="#B8A0FD" fill-opacity="0.25"/>
<path d="M52.5 186.5L96.4915 127.845C102.884 119.321 106.081 115.059 109.644 111.717C121.344 100.746 137.187 95.318 153.157 96.8094C158.021 97.2636 163.159 98.6699 173.436 101.483V101.483C183.739 104.302 188.891 105.712 193.765 106.166C209.77 107.654 225.642 102.194 237.344 91.1743C240.908 87.8181 244.102 83.5375 250.489 74.9762L255.201 68.6617C267.194 52.5869 273.191 44.5495 280.641 39.361C290.667 32.3784 302.701 28.8662 314.909 29.36C323.98 29.7269 333.358 33.2769 352.116 40.3771L381.5 51.5" stroke="black" stroke-opacity="0.1" stroke-width="3"/>
<path d="M86 186.5L125.22 119.186C129.647 111.588 131.861 107.789 134.185 104.808C148.906 85.9328 173.997 78.5012 196.622 86.3144C200.196 87.5483 204.121 89.5291 211.973 93.4907V93.4907C219.574 97.3264 223.375 99.2442 226.86 100.46C248.894 108.147 273.386 101.365 288.326 83.4376C290.689 80.6021 292.962 77.0023 297.507 69.8026L304.699 58.4108C305.194 57.6278 305.441 57.2362 305.657 56.9048C321.746 32.2007 354.233 24.2014 379.953 38.6107C380.298 38.804 380.699 39.036 381.5 39.5V39.5" stroke="black" stroke-opacity="0.1" stroke-width="3"/>
<circle cx="249" cy="110" r="40" fill="#B8A0FD"/>
<path d="M228.5 75C228.5 75 225.202 103.113 239 116C251.879 128.029 282 130 282 130" stroke="black" stroke-opacity="0.1" stroke-width="3" stroke-dasharray="6 6"/>
<path d="M266.5 75C266.5 75 239.615 84.1652 230 98C221.27 110.561 220.5 136 220.5 136" stroke="black" stroke-opacity="0.1" stroke-width="3" stroke-dasharray="6 6"/>
<rect x="312.074" y="49.8416" width="42.6124" height="85" transform="rotate(20 312.074 49.8416)" fill="url(#paint0_linear_2544_171)"/>
<path d="M278.647 172.755L273.671 93.3048L341.023 136.742C341.023 136.742 331.058 161.885 317.613 169.415C304.544 176.734 278.647 172.755 278.647 172.755Z" fill="#F9E8CF"/>
<path d="M278.438 107.823L333.438 152.323" stroke="black" stroke-opacity="0.1" stroke-width="3" stroke-dasharray="6 6"/>
<ellipse cx="331.427" cy="58.2441" rx="21.305" ry="9.96231" transform="rotate(20 331.427 58.2441)" fill="#F085E5"/>
<path d="M323.282 119.909L343.007 70" stroke="black" stroke-opacity="0.1" stroke-width="3" stroke-dasharray="6 6"/>
<circle cx="195" cy="151" r="3.015" fill="white"/>
<circle cx="228" cy="50" r="3.72" fill="white"/>
<circle cx="363" cy="125" r="4.44" fill="white"/>
<circle cx="294" cy="56" r="3.2802" fill="white"/>
<circle cx="245" cy="171" r="6" fill="white"/>
<defs>
<linearGradient id="paint0_linear_2544_171" x1="333.38" y1="49.8416" x2="333.38" y2="134.842" gradientUnits="userSpaceOnUse">
<stop stop-color="#EC6EDF"/>
<stop offset="1" stop-color="#863E7F"/>
</linearGradient>
</defs>
</svg>
