<svg width="128" height="94" viewBox="0 0 128 94" fill="none" xmlns="http://www.w3.org/2000/svg">
<path d="M25.9827 24.5946C24.2551 21.6745 27.9416 18.5812 30.5173 20.7895L39.0283 28.0866C40.4345 29.2923 40.423 31.4716 39.004 32.6623L36.2013 35.014C34.7824 36.2046 32.6341 35.8376 31.691 34.2434L25.9827 24.5946Z" fill="#FAC7C7"/>
<path d="M18.1861 43.1247C14.9857 41.9982 15.8214 37.259 19.214 37.295L30.4243 37.4142C32.2765 37.4339 33.6685 39.1108 33.3468 40.9349L32.7115 44.538C32.3898 46.3622 30.5083 47.4619 28.761 46.8469L18.1861 43.1247Z" fill="#FAC7C7"/>
<path d="M46.2366 15.8959C46.7902 12.5486 51.6026 12.5486 52.1562 15.8959L53.9855 26.9566C54.2878 28.7841 52.878 30.4461 51.0257 30.4461H47.3671C45.5148 30.4461 44.105 28.7841 44.4073 26.9566L46.2366 15.8959Z" fill="#FAC7C7"/>
<path d="M46.6721 44.8182H78.8671C80.9437 44.8182 82.6271 45.1286 82.6271 47.2052V51.1632C82.6271 58.6536 66.0993 55.0393 57.5464 52.6676C55.0697 51.9808 52.5471 53.8226 52.5471 56.3928V61.9732C52.5471 64.0497 54.2305 65.7332 56.3071 65.7332H75.5771C77.6537 65.7332 79.3371 67.4166 79.3371 69.4932V69.7282C79.3371 71.8047 77.6537 73.4882 75.5771 73.4882H56.3071C54.2305 73.4882 52.5471 75.1716 52.5471 77.2482V78.5696C52.5471 80.9315 54.6928 82.7242 57.0274 82.366C64.5782 81.2076 79.3387 79.4886 82.6271 83.1232C85.6515 86.4659 84.5787 89.9165 83.5716 91.7951C83.0553 92.7582 81.999 93.2282 80.9062 93.2282H46.6721C44.5955 93.2282 42.9121 91.5447 42.9121 89.4681V77.2482C42.9121 75.1716 41.2287 73.4882 39.1521 73.4882H29.5171C27.4405 73.4882 25.7571 71.8047 25.7571 69.7282V69.4932C25.7571 67.4166 27.4405 65.7332 29.5171 65.7332H39.1521C41.2287 65.7332 42.9121 64.0497 42.9121 61.9731V48.5782C42.9121 46.5016 44.5955 44.8182 46.6721 44.8182Z" fill="#B8A0FD"/>
<path d="M92.1393 37.5065C88.0863 38.2797 83.6926 38.492 80.3332 37.0389C80.0758 36.9276 79.8165 36.803 79.5562 36.667C75.3376 34.4626 77.8302 28.8592 82.5892 28.9519L102.584 29.3412C105.278 29.3937 107.546 31.3741 107.96 34.037L110.958 53.3052C111.629 57.6186 106.795 60.7059 104.284 57.1356C102.183 54.1499 101.639 49.8053 101.738 45.683C101.85 40.9765 96.7637 36.6242 92.1393 37.5065Z" fill="#FAC7C7"/>
</svg>
