<svg width="180" height="256" viewBox="0 0 180 256" fill="none" xmlns="http://www.w3.org/2000/svg">
<g clip-path="url(#clip0_2522_119)">
<rect width="180" height="256" rx="30" fill="#B8A0FD" fill-opacity="0.25"/>
<path d="M22.8112 130.891C10.4879 82.1075 139.179 73.9917 139.179 73.9917C139.179 73.9917 189.121 56.0104 210.05 73.9917C240.828 100.436 117.815 90.8072 122.992 130.891C125.805 152.663 153.978 154.278 156.678 176.063C160.927 210.356 94.9942 239.913 94.9942 239.913C94.9942 239.913 8.63567 276.109 -2.9997 239.913C-13.909 205.974 68.1321 211.265 62.6212 176.063C58.9951 152.901 28.5546 153.628 22.8112 130.891Z" fill="#B8A0FD" fill-opacity="0.65"/>
<path d="M97.8794 95.3036V73.0495C97.8794 66.2249 98.7547 75.4232 94.1556 73.0495C89.5564 70.6757 105.149 58.5101 105.149 65.7798V95.3036C105.149 103.464 97.8794 103.018 97.8794 95.3036Z" fill="#9B78FF" stroke="white" stroke-width="0.593444"/>
<path d="M52.6512 96.5035C47.0999 88.2199 35.0009 95.2219 31.7467 95.2219C28.4925 95.2219 29.1654 102.614 32.7067 102.614C36.248 102.614 43.5538 96.6258 43.2667 100.886C42.9796 105.146 29.7397 116.428 32.7067 122.582C35.6738 128.735 49.9712 126.324 54.6611 124.076C59.351 121.828 58.2025 115.437 54.6611 115.437C51.1198 115.437 43.5538 121.495 43.2667 117.59C42.9796 113.685 58.2025 104.787 52.6512 96.5035Z" fill="#EC55CB" stroke="white" stroke-width="0.384"/>
<path d="M70.2363 164.863C67.2458 159.645 54.836 164.863 54.836 164.863C54.836 164.863 50.153 161.891 54.836 159.099C59.519 156.307 71.6771 155.677 76.6304 162.341C81.5837 169.006 69.1555 173.148 69.1555 173.148C69.1555 173.148 79.0621 178.282 79.0621 184.676C79.0621 191.07 59.5191 191.881 54.836 188.549C50.1529 185.216 54.836 180.893 54.836 180.893C54.836 180.893 68.8883 186.755 70.2363 180.893C71.4884 175.449 58.9787 175.13 58.9787 172.068C58.9787 169.006 73.683 170.877 70.2363 164.863Z" fill="#FDB4B4" stroke="white" stroke-width="0.36024"/>
<path d="M98.136 193.873C97.836 190.973 110.836 176.873 115.936 174.273C121.036 171.673 122.736 171.873 123.036 174.273C123.336 176.673 106.936 188.273 105.836 190.473C104.736 192.673 112.044 193.033 113.836 190.473C115.09 188.682 114.136 187.673 115.136 186.173C116.136 184.673 120.136 184.373 121.036 186.173C121.936 187.973 120.136 188.773 121.036 190.473C121.936 192.173 129.736 188.873 131.736 190.473C133.736 192.073 133.536 195.173 131.736 196.473C129.936 197.773 121.936 193.873 121.936 196.473C121.936 199.073 121.936 197.473 121.036 200.973C120.136 204.473 116.036 203.473 115.136 200.973C114.236 198.473 113.836 196.473 113.836 196.473C113.836 196.473 98.436 196.773 98.136 193.873Z" fill="black" stroke="white" stroke-width="0.4"/>
</g>
<defs>
<clipPath id="clip0_2522_119">
<rect width="180" height="256" rx="30" fill="white"/>
</clipPath>
</defs>
</svg>
